<?xml version="1.0" encoding="utf-8"?>
<!-- Generator: Adobe Illustrator 16.0.0, SVG Export Plug-In . SVG Version: 6.00 Build 0)  -->
<!DOCTYPE svg PUBLIC "-//W3C//DTD SVG 1.1//EN" "http://www.w3.org/Graphics/SVG/1.1/DTD/svg11.dtd">
<svg version="1.1" id="Layer_1" xmlns="http://www.w3.org/2000/svg" xmlns:xlink="http://www.w3.org/1999/xlink" x="0px" y="0px"
	 width="243.33px" height="243.325px" viewBox="0 0 243.33 243.325" enable-background="new 0 0 243.33 243.325"
	 xml:space="preserve">
<path fill="#FFFFFF" d="M131.674,119.22h-19.849c-2.466,0-4.427,1.985-4.427,4.442v44.169c0,2.447,1.961,4.433,4.427,4.433h19.849
	c2.467,0,4.471-1.985,4.471-4.433v-44.169C136.145,121.205,134.141,119.22,131.674,119.22"/>
<path fill="#FFFFFF" d="M229.474,0H13.87C6.205,0,0,6.2,0,13.856V229.45c0,7.68,6.205,13.875,13.87,13.875h215.604
	c7.631,0,13.856-6.195,13.856-13.875V13.856C243.33,6.2,237.105,0,229.474,0 M179.312,119.538v55.019
	c0,3.845-1.715,4.346-5.55,4.346H70.18c-3.83,0-5.998-0.501-5.998-4.346v-55.019L42.141,119.5l12.175-12.146v-0.039l68.07-67.029
	l64.635,65.271l14.164,13.943L179.312,119.538z"/>
</svg>
