<?xml version="1.0" encoding="utf-8"?>
<!-- Generator: Adobe Illustrator 15.0.2, SVG Export Plug-In . SVG Version: 6.00 Build 0)  -->
<!DOCTYPE svg PUBLIC "-//W3C//DTD SVG 1.1//EN" "http://www.w3.org/Graphics/SVG/1.1/DTD/svg11.dtd">
<svg version="1.1" id="Capa_1" xmlns="http://www.w3.org/2000/svg" xmlns:xlink="http://www.w3.org/1999/xlink" x="0px" y="0px"
	 width="140px" height="140px" viewBox="0 0 140 140" enable-background="new 0 0 140 140" xml:space="preserve">
<g>
	<path fill="#00C0F3" d="M50.515,54.541L50.46,65.542c0,1.666-0.057,3.279-0.168,4.724c-0.334,4.945-2.056,8.281-5.445,10.613
		c-2.779,1.889-6.445,2.889-10.836,2.889c-3.111,0-5.891-0.443-8.281-1.498c-1.721-0.668-3.278-1.611-4.5-2.893
		c-2.278-2.498-3.168-5.611-3.111-11.167l0.057-4.168l0.053-10.17c0-2.722-0.166-4.666-0.442-5.778
		c-0.278-1.167-1.112-1.724-2.724-1.724h-0.555l1.055-2.332l1.39,0.055h5.167l1.779-0.111c-0.223,1.833-0.334,3.168-0.389,4.112
		c0,0.721,0,2.722-0.056,5.946l-0.11,11.059v0.887c0,5.112,0.221,6.725,1.109,8.78c1.445,3.279,5.335,5.336,10.003,5.336
		c2.724,0,5.168-0.611,7.112-1.723c1.557-0.945,2.779-2.279,3.445-3.779c0.945-2.223,1.168-4.557,1.168-10.057l0.055-10.002
		c0.056-5.058-0.333-8.113-1.112-10.502l1.446,0.055h3.111l1.557-0.055C50.681,47.982,50.569,49.149,50.515,54.541"/>
	<path fill="#00C0F3" d="M87.751,46.705l-0.667,2.224l-0.441,1.665h-0.781c-2.61-3.055-5.611-4.333-10.058-4.333
		c-9.058,0-14.67,6.223-14.67,16.28c0,10.393,6.225,17.336,15.56,17.336c1.611,0,3.278-0.275,4.947-0.664
		c2.389-0.613,3.333-1.002,5.555-2.613l0.668,0.5l-0.5,1.334l-0.614,1.834L86.25,81.99c-2.61,0.668-3.611,0.836-4.944,1.057
		c-1.668,0.221-3.891,0.389-5.668,0.389c-3.945,0-7.503-0.725-10.281-2.111c-6.224-3.113-10.334-10.227-10.334-18.004
		c0-6.002,2.555-11.504,6.945-15.226c4.055-3.39,9.169-4.946,16.004-4.946c1.558,0,3.055,0.111,4.667,0.334
		c2.111,0.278,3.17,0.555,5.726,1.389L87.751,46.705z"/>
	<path fill="#00C0F3" d="M125.438,82.711l-1.442,0.057l-4.225,0.111l-2.334,0.168c-0.278-0.445-0.499-0.777-0.667-1
		c-0.11-0.166-0.333-0.611-0.722-1.279c-0.276-0.557-0.669-1.277-1.168-2.109c-2.611-4.447-4.557-7.336-7.779-11.725
		c-1.776-2.449-2.722-3.113-4.222-3.113h-0.557l0.333-1.389l0.224-1.334c2.665-0.056,3.665-0.166,5.056-0.723
		c2.669-1.001,4.277-3.667,4.277-6.891c0-4.278-2.776-6.891-7.445-6.891c-1,0-1.888,0.055-3.945,0.334
		c-0.11,2.334-0.167,2.889-0.167,7.112L100.6,72.211c0,5.055,0.335,8.111,1.112,10.5l-1.445-0.109h-4.058l-1.554,0.109
		c0.608-3.943,0.721-5.277,0.721-10.555l0.056-18.284c0-2.723-0.11-4.667-0.39-5.779c-0.275-1.166-1.107-1.722-2.72-1.722h-0.558
		l1.057-2.334l4.446,0.11l5.278-0.166c1.444-0.057,2.723-0.057,3.945-0.057c4.722,0,6.445,0.445,8.335,1.946
		c1.834,1.5,2.834,3.833,2.834,6.557c0,2.333-0.778,4.5-2.223,6.056c-1.223,1.279-2.779,2.334-5.446,3.724l1.278,1.724l5.612,8.225
		c2.612,3.889,4.501,6.391,6.224,8.111c0.891,0.889,1.279,1.225,2.391,2.057L125.438,82.711z"/>
	<path fill="#00C0F3" d="M134.915,95.309c0,0-25.615-5.902-64.947-5.902c-33.41,0-64.883,5.902-64.883,5.902v1.543
		c0,0,31.609-2.896,64.893-2.896c40.099,0,64.938,2.896,64.938,2.896V95.309z"/>
</g>
</svg>
