<?xml version="1.0" encoding="utf-8"?>
<!-- Generator: Adobe Illustrator 15.1.0, SVG Export Plug-In . SVG Version: 6.00 Build 0)  -->
<!DOCTYPE svg PUBLIC "-//W3C//DTD SVG 1.1//EN" "http://www.w3.org/Graphics/SVG/1.1/DTD/svg11.dtd">
<svg version="1.1" id="Capa_1" xmlns="http://www.w3.org/2000/svg" xmlns:xlink="http://www.w3.org/1999/xlink" x="0px" y="0px"
	 width="42.076px" height="42.107px" viewBox="0 0 42.076 42.107" enable-background="new 0 0 42.076 42.107" xml:space="preserve">
<g id="Layer_5">
</g>
<g id="Capa_3" display="none">
	<rect y="0" display="inline" fill="#231F20" width="42.076" height="42.107"/>
</g>
<g id="Capa_3_copia">
</g>
<g id="Layer_4">
	<path fill="#999999" d="M21.283,31.245l4.934-4.935l7.093-7.096c0.529-0.527,0.529-1.383,0-1.915l-3.05-3.045
		c-0.528-0.531-1.385-0.531-1.913-0.003l-3.645,3.638V5.742c0.001-0.748-0.605-1.354-1.355-1.355l-4.312,0.005
		c-0.748,0-1.354,0.604-1.356,1.352v12.03l-3.657-3.657c-0.529-0.528-1.388-0.528-1.918,0l-3.05,3.049
		c-0.528,0.532-0.528,1.387,0,1.918l7.229,7.229l4.936,4.935L4.534,31.235v4.444c0,1.169,0.949,2.119,2.118,2.119h29.083
		c1.168,0,2.119-0.95,2.119-2.119v-4.425L21.283,31.245z"/>
</g>
</svg>
