<?xml version="1.0" encoding="utf-8"?>
<!-- Generator: Adobe Illustrator 19.2.1, SVG Export Plug-In . SVG Version: 6.00 Build 0)  -->
<svg version="1.1" id="Capa_2" xmlns="http://www.w3.org/2000/svg" xmlns:xlink="http://www.w3.org/1999/xlink" x="0px" y="0px"
	 viewBox="0 0 32 32" style="enable-background:new 0 0 32 32;" xml:space="preserve">
<style type="text/css">
	.st0{fill:#F6F6F6;}
</style>
<g>
	<path class="st0" d="M27.9,7.6h-2.5V5.7c0-0.9-0.7-1.7-1.7-1.7C22.8,4,22,4.8,22,5.7v1.9h-1.7V5.7c0-0.9-0.8-1.7-1.7-1.7
		c-0.9,0-1.7,0.8-1.7,1.7v1.9h-1.8V5.7c0-0.9-0.8-1.7-1.7-1.7s-1.7,0.8-1.7,1.7v1.9H10V5.7C10,4.8,9.2,4,8.3,4
		C7.4,4,6.6,4.8,6.6,5.7v1.9H5.4H4.1c-1,0-1.8,0.8-1.8,1.8v16.8c0,1,0.8,1.8,1.8,1.8h23.8c1,0,1.8-0.8,1.8-1.8V9.4
		C29.7,8.4,28.9,7.6,27.9,7.6 M26.5,24.6h-21v-14h21L26.5,24.6L26.5,24.6z"/>
	<rect x="8.1" y="16" class="st0" width="2.8" height="2.8"/>
	<rect x="8.1" y="20" class="st0" width="2.8" height="2.8"/>
	<rect x="12" y="12" class="st0" width="2.8" height="2.8"/>
	<rect x="12" y="16" class="st0" width="2.8" height="2.8"/>
	<rect x="12" y="20" class="st0" width="2.8" height="2.8"/>
	<rect x="16" y="12" class="st0" width="2.8" height="2.8"/>
	<rect x="16" y="16" class="st0" width="2.8" height="2.8"/>
	<rect x="16" y="20" class="st0" width="2.8" height="2.8"/>
	<rect x="19.9" y="12" class="st0" width="2.8" height="2.8"/>
	<rect x="19.9" y="16" class="st0" width="2.8" height="2.8"/>
</g>
</svg>
