<?xml version="1.0" encoding="utf-8"?>
<!-- Generator: Adobe Illustrator 19.2.1, SVG Export Plug-In . SVG Version: 6.00 Build 0)  -->
<svg version="1.1" id="Capa_2" xmlns="http://www.w3.org/2000/svg" xmlns:xlink="http://www.w3.org/1999/xlink" x="0px" y="0px"
	 viewBox="0 0 32 32" style="enable-background:new 0 0 32 32;" xml:space="preserve">
<style type="text/css">
	.st0{fill:#999999;}
</style>
<g>
	<g>
		<g>
			<path class="st0" d="M17.7,24.7c-2.9,2.9-7.6,2.9-10.4,0c-2.9-2.9-2.9-7.6,0-10.4l2.3-2.3l2.6,2.6l-2.4,2.3
				c-1.5,1.5-1.5,3.8,0,5.3c1.5,1.5,3.8,1.5,5.3,0l2.3-2.3l2.6,2.6L17.7,24.7z"/>
			<path class="st0" d="M14.3,7.3c2.9-2.9,7.6-2.9,10.4,0c2.9,2.9,2.9,7.6,0,10.4l-2.3,2.3l-2.6-2.6l2.4-2.3c1.5-1.5,1.5-3.8,0-5.3
				c-1.5-1.5-3.8-1.5-5.3,0l-2.3,2.3L12,9.6L14.3,7.3z"/>
			<path class="st0" d="M12.5,19.3c0.7,0.7,1.8,0.7,2.5,0l4.6-4.6c0.7-0.7,0.7-1.8,0-2.5l0,0c-0.7-0.7-1.8-0.7-2.5,0l-4.6,4.6
				C11.8,17.5,11.8,18.6,12.5,19.3L12.5,19.3z"/>
		</g>
	</g>
</g>
</svg>
