<?xml version="1.0" encoding="utf-8"?>
<!-- Generator: Adobe Illustrator 15.1.0, SVG Export Plug-In . SVG Version: 6.00 Build 0)  -->
<!DOCTYPE svg PUBLIC "-//W3C//DTD SVG 1.1//EN" "http://www.w3.org/Graphics/SVG/1.1/DTD/svg11.dtd">
<svg version="1.1" id="Capa_2" xmlns="http://www.w3.org/2000/svg" xmlns:xlink="http://www.w3.org/1999/xlink" x="0px" y="0px"
	 width="32px" height="32px" viewBox="0 0 32 32" enable-background="new 0 0 32 32" xml:space="preserve">
<g>
	<g>
		<g>
			<path fill="#F6F6F6" d="M17.722,24.711c-2.879,2.883-7.553,2.883-10.434,0c-2.885-2.883-2.879-7.553,0-10.43l2.337-2.344
				l2.587,2.584l-2.35,2.328c-1.457,1.463-1.457,3.83,0,5.285c1.459,1.461,3.824,1.461,5.283,0l2.32-2.316l2.553,2.557
				L17.722,24.711z"/>
			<path fill="#F6F6F6" d="M14.28,7.287c2.881-2.879,7.553-2.883,10.434,0c2.881,2.881,2.879,7.551,0,10.434l-2.34,2.336
				l-2.586-2.582l2.35-2.33c1.459-1.457,1.459-3.822,0-5.283c-1.458-1.459-3.824-1.459-5.283,0l-2.318,2.32l-2.557-2.557
				L14.28,7.287z"/>
			<path fill="#F6F6F6" d="M12.536,19.33c0.688,0.688,1.805,0.688,2.494,0l4.633-4.629c0.688-0.691,0.688-1.807,0-2.496l0,0
				c-0.689-0.691-1.807-0.691-2.494,0l-4.633,4.633C11.847,17.525,11.847,18.643,12.536,19.33L12.536,19.33z"/>
		</g>
	</g>
</g>
</svg>
