<?xml version="1.0" encoding="utf-8"?>
<!-- Generator: Adobe Illustrator 19.2.1, SVG Export Plug-In . SVG Version: 6.00 Build 0)  -->
<svg version="1.1" id="Capa_1" xmlns="http://www.w3.org/2000/svg" xmlns:xlink="http://www.w3.org/1999/xlink" x="0px" y="0px"
	 viewBox="0 0 32 32" style="enable-background:new 0 0 32 32;" xml:space="preserve">
<style type="text/css">
	.st0{fill:#999999;}
</style>
<g>
	<path class="st0" d="M13.2,20.9L13.2,20.9l0.1,0.1l8.5-8.5l2.4,2.4l0,0l5.3,5.3V6.7c0-0.9-0.8-1.7-1.7-1.7H4.2
		C3.3,5,2.5,5.8,2.5,6.7v18.5c0,0.4,0.2,0.8,0.4,1.1l7.9-7.9L13.2,20.9z M9.1,11.7c0-1.9,1.5-3.4,3.4-3.4c1.9,0,3.4,1.5,3.4,3.4
		c0,1.9-1.5,3.4-3.4,3.4C10.6,15.1,9.1,13.6,9.1,11.7z"/>
	<path class="st0" d="M29.5,25.3V23l-7.7-7.7l-7.1,7.1l4.5,4.5h8.5C28.7,27,29.5,26.2,29.5,25.3z"/>
	<polygon class="st0" points="5.1,27 16.4,27 10.8,21.3 	"/>
</g>
</svg>
