<?xml version="1.0" encoding="utf-8"?>
<!-- Generator: Adobe Illustrator 15.1.0, SVG Export Plug-In . SVG Version: 6.00 Build 0)  -->
<!DOCTYPE svg PUBLIC "-//W3C//DTD SVG 1.1//EN" "http://www.w3.org/Graphics/SVG/1.1/DTD/svg11.dtd">
<svg version="1.1" id="Capa_1" xmlns="http://www.w3.org/2000/svg" xmlns:xlink="http://www.w3.org/1999/xlink" x="0px" y="0px"
	 width="32px" height="32px" viewBox="0 0 32 32" enable-background="new 0 0 32 32" xml:space="preserve">
<g>
	<path fill="#F7F7F7" d="M13.224,20.894l-0.018,0.016l0.126,0.127l8.518-8.518l2.415,2.416l-0.017,0.018l5.264,5.264V6.745
		c0-0.947-0.768-1.717-1.716-1.717H4.205c-0.948,0-1.717,0.77-1.717,1.717v18.51c0,0.43,0.163,0.816,0.424,1.119l7.896-7.896
		L13.224,20.894z M9.102,11.708c0-1.873,1.519-3.391,3.39-3.391c1.873,0,3.392,1.518,3.392,3.391c0,1.871-1.519,3.391-3.392,3.391
		C10.62,15.099,9.102,13.579,9.102,11.708z"/>
	<path fill="#F7F7F7" d="M29.512,25.255v-2.207l-7.68-7.68l-7.084,7.084l4.521,4.52h8.527
		C28.744,26.972,29.512,26.204,29.512,25.255z"/>
	<polygon fill="#F7F7F7" points="5.145,26.972 16.438,26.972 10.791,21.325 	"/>
</g>
</svg>
