<?xml version="1.0" encoding="utf-8"?>
<!-- Generator: Adobe Illustrator 19.2.1, SVG Export Plug-In . SVG Version: 6.00 Build 0)  -->
<svg version="1.1" id="Capa_2" xmlns="http://www.w3.org/2000/svg" xmlns:xlink="http://www.w3.org/1999/xlink" x="0px" y="0px"
	 viewBox="0 0 32 32" style="enable-background:new 0 0 32 32;" xml:space="preserve">
<style type="text/css">
	.st0{fill:none;}
	.st1{fill:#F6F6F6;}
</style>
<g>
	<g>
		<polygon class="st0" points="6,19.8 20.3,19.8 20.3,19.8 20.3,5.8 6,5.8 		"/>
		<path class="st1" d="M27.4,8.8h-4V4.5c0-1-0.8-1.8-1.8-1.8H5.9H4.6c-1,0-1.8,0.8-1.8,1.8v16.8c0,1,0.8,1.8,1.8,1.8h4v4.3
			c0,1,0.8,1.8,1.8,1.8h17.1c1,0,1.8-0.8,1.8-1.8V10.6C29.2,9.6,28.4,8.8,27.4,8.8z M6,5.8h14.3v3h0v3h0v7.9h0H6V5.8z M26,25.8
			L26,25.8H11.7v-2.7h9.9c1,0,1.8-0.8,1.8-1.8v-9.5H26V25.8z"/>
	</g>
	<rect x="8.1" y="14.7" class="st1" width="10" height="2.5"/>
	<rect x="14.3" y="11.5" class="st1" width="3.9" height="2.2"/>
	<rect x="14.3" y="8.3" class="st1" width="3.9" height="2.2"/>
	<rect x="8.1" y="8.3" class="st1" width="5" height="5.4"/>
</g>
</svg>
