<?xml version="1.0" encoding="utf-8"?>
<!-- Generator: Adobe Illustrator 19.2.1, SVG Export Plug-In . SVG Version: 6.00 Build 0)  -->
<svg version="1.1" id="Capa_2" xmlns="http://www.w3.org/2000/svg" xmlns:xlink="http://www.w3.org/1999/xlink" x="0px" y="0px"
	 viewBox="0 0 32 32" style="enable-background:new 0 0 32 32;" xml:space="preserve">
<style type="text/css">
	.st0{fill:#999999;}
</style>
<path class="st0" d="M16,4.2C9.5,4.2,4.3,9.5,4.3,16s5.3,11.7,11.8,11.7S27.8,22.4,27.8,16C27.7,9.5,22.5,4.2,16,4.2z M17.2,23.2
	h-2.6v-2.4h2.6V23.2z M20,15.2c-0.4,0.6-1,1-1.6,1.4c-0.3,0.2-0.7,0.6-1,1c-0.2,0.4-0.2,0.7-0.3,1.1v0.9h-2.6l0.1-1.3
	c0.1-1,0.5-1.9,1.2-2.6c0.3-0.3,0.6-0.6,1.1-1c0.6-0.5,0.9-1,0.9-1.6c0-0.7-0.3-1.3-1-1.6c-0.2-0.2-0.6-0.2-0.9-0.2
	c-1,0-1.5,0.6-1.8,1.8v0.2h-2.6c0.2-1.2,0.5-2,1-2.8c0.7-1,1.8-1.5,3-1.7c0.2,0,0.3,0,0.5,0c1.4,0,2.5,0.5,3.4,1.5
	c0.3,0.4,0.6,1,0.8,1.4c0.2,0.5,0.2,1,0.2,1.4C20.7,13.9,20.4,14.6,20,15.2z"/>
</svg>
