<?xml version="1.0" encoding="utf-8"?>
<!-- Generator: Adobe Illustrator 19.2.1, SVG Export Plug-In . SVG Version: 6.00 Build 0)  -->
<svg version="1.1" id="Capa_3" xmlns="http://www.w3.org/2000/svg" xmlns:xlink="http://www.w3.org/1999/xlink" x="0px" y="0px"
	 viewBox="0 0 32 32" style="enable-background:new 0 0 32 32;" xml:space="preserve">
<style type="text/css">
	.st0{fill:#999999;}
</style>
<g>
	<path class="st0" d="M25.6,7.8l-4.3,12c-0.5,1.4-2.1,2.1-3.5,1.6c-1-0.4-1.7-1.3-1.8-2.4v-7.6l0-0.5c0-0.7,0.6-1.3,1.3-1.3
		s1.3,0.6,1.3,1.3c0,0.4-0.6,1.2-0.6,1.2l-0.5,0.7l0,3.3l1.6-2.4l0.5-0.9c0.3-0.5,0.4-1.1,0.4-1.7c0-1.9-1.5-3.4-3.4-3.4
		s-3.4,1.5-3.4,3.4v0.2v7.9c0.1,2.1,1.4,4,3.5,4.8c2.8,1,5.9-0.4,6.9-3.2l2-5.5l0.5-1.2c0-0.1,2.1-6,2.1-6.1L25.6,7.8L25.6,7.8z"/>
	<path class="st0" d="M10.9,20.8c-0.7,0.7-1.8,1.1-2.8,0.7C6.6,21,5.9,19.4,6.4,18l0.3-0.8l3.4-9.4H7.3l0,0l-1.6,0
		C5,7.8,4.4,8.4,4.4,9.1c0,0.7,0.6,1.2,1.2,1.2l0.7,0l-1.7,4.8l-0.8,2c-1,2.8,0.4,5.9,3.2,6.9c1.9,0.7,4,0.2,5.5-1.1
		c-0.6-0.8-0.9-1.8-1.1-2.8C11.1,20.5,10.9,20.8,10.9,20.8z"/>
</g>
</svg>
