<?xml version="1.0" encoding="utf-8"?>
<!-- Generator: Adobe Illustrator 19.2.1, SVG Export Plug-In . SVG Version: 6.00 Build 0)  -->
<svg version="1.1" id="Layer_1" xmlns="http://www.w3.org/2000/svg" xmlns:xlink="http://www.w3.org/1999/xlink" x="0px" y="0px"
	 viewBox="0 0 25 25" style="enable-background:new 0 0 25 25;" xml:space="preserve">
<style type="text/css">
	.st0{fill:#FFFFFF;}
	.st1{fill:#999999;}
</style>
<path class="st0" d="M25,12.5C25,19.4,19.4,25,12.5,25C5.6,25,0,19.4,0,12.5S5.6,0,12.5,0C19.4,0,25,5.6,25,12.5"/>
<path class="st1" d="M12.5,14.2c1,0.8,1.5,1.2,1.9,0.8l0.4-0.4l0.6-0.6c0.2-0.2,0.5-0.2,0.6,0c0,0,2.3,2.3,2.3,2.3
	c0.2,0.2,0.2,0.5,0,0.7c0,0-0.4,0.4-0.7,0.7l-0.4,0.4c-0.5,0.5-3.3,1.5-7.7-3c-0.7-0.8-1.5-1.6-2-2.5c-0.6-1-1.1-2.1-1.1-3.3
	c0-0.3,0-0.7,0.1-1c0-0.2,0.2-0.4,0.3-0.6C6.9,7.5,7,7.4,7.1,7.3l0.8-0.8c0.2-0.2,0.5-0.2,0.6,0l2.4,2.3c0.2,0.2,0.2,0.5,0,0.7
	c0,0-0.4,0.4-0.6,0.6l-0.4,0.4c-0.4,0.4,0,1,0.5,1.6C11,13,11.8,13.7,12.5,14.2"/>
</svg>
