<?xml version="1.0" encoding="utf-8"?>
<!-- Generator: Adobe Illustrator 19.2.1, SVG Export Plug-In . SVG Version: 6.00 Build 0)  -->
<svg version="1.1" id="Layer_1" xmlns="http://www.w3.org/2000/svg" xmlns:xlink="http://www.w3.org/1999/xlink" x="0px" y="0px"
	 viewBox="0 0 25 25" style="enable-background:new 0 0 25 25;" xml:space="preserve">
<style type="text/css">
	.st0{fill:#FFFFFF;}
	.st1{fill:#999999;}
</style>
<path class="st0" d="M25,12.5C25,19.4,19.4,25,12.5,25S0,19.4,0,12.5S5.6,0,12.5,0S25,5.6,25,12.5z"/>
<path class="st1" d="M16.1,12.9H13v7.6h-2.5v-7.6H8.8v-2.5h1.7V8.1c0-1.8,1.1-3.5,3.8-3.5c1.1,0,1.9,0.1,1.9,0.1l-0.1,2.6
	c0,0-1,0-1.9,0c-1,0-1.3,0.5-1.3,1.2v0.1v1.8h3.2V12.9z"/>
</svg>
