<?xml version="1.0" encoding="utf-8"?>
<!-- Generator: Adobe Illustrator 19.2.1, SVG Export Plug-In . SVG Version: 6.00 Build 0)  -->
<svg version="1.1" id="Layer_1" xmlns="http://www.w3.org/2000/svg" xmlns:xlink="http://www.w3.org/1999/xlink" x="0px" y="0px"
	 viewBox="0 0 25 25" style="enable-background:new 0 0 25 25;" xml:space="preserve">
<style type="text/css">
	.st0{fill:#FFFFFF;}
	.st1{fill:#999999;}
</style>
<path class="st0" d="M25,12.5C25,19.4,19.4,25,12.5,25S0,19.4,0,12.5S5.6,0,12.5,0S25,5.6,25,12.5z"/>
<path class="st1" d="M18.1,5.9H6.9c-0.8,0-1.4,0.6-1.4,1.4v11c0,0.8,0.6,1.4,1.4,1.4H18c0.8,0,1.4-0.6,1.4-1.4v-11
	C19.5,6.5,18.8,5.9,18.1,5.9z M12.5,10.2c1.5,0,2.7,1.2,2.7,2.7s-1.2,2.7-2.7,2.7s-2.7-1.2-2.7-2.7C9.9,11.4,11.1,10.2,12.5,10.2z
	 M17.9,17.5c0,0.4-0.3,0.7-0.7,0.7H7.9c-0.4,0-0.7-0.3-0.7-0.7v-5.6h1.2c-0.1,0.3-0.1,0.7-0.1,1.1c0,2.4,1.9,4.3,4.3,4.3
	s4.3-1.9,4.3-4.3c0-0.4,0-0.7-0.1-1h1.1L17.9,17.5L17.9,17.5z M17.9,9.1L17.9,9.1v0.2c0,0.4-0.3,0.7-0.7,0.7H16
	c-0.4,0-0.7-0.3-0.7-0.7v-1c0-0.4,0.3-0.7,0.7-0.7h0.2h1.1c0.4,0,0.7,0.3,0.7,0.7L17.9,9.1L17.9,9.1z"/>
</svg>
