<?xml version="1.0" encoding="utf-8"?>
<!-- Generator: Adobe Illustrator 19.2.1, SVG Export Plug-In . SVG Version: 6.00 Build 0)  -->
<svg version="1.1" id="Layer_1" xmlns="http://www.w3.org/2000/svg" xmlns:xlink="http://www.w3.org/1999/xlink" x="0px" y="0px"
	 viewBox="0 0 25 25" style="enable-background:new 0 0 25 25;" xml:space="preserve">
<style type="text/css">
	.st0{fill:#FFFFFF;}
	.st1{fill:#999999;}
</style>
<path class="st0" d="M25,12.5C25,19.4,19.4,25,12.5,25S0,19.4,0,12.5S5.6,0,12.5,0S25,5.6,25,12.5"/>
<polygon class="st1" points="17.2,6.8 16.7,6.8 15.5,6.8 13.4,13.1 11.4,6.8 10.4,6.8 9.6,6.8 8.7,6.8 6.5,18.2 8.3,18.2 10.1,8.5 
	12.5,15.7 12.6,15.7 14.3,15.7 14.3,15.7 16.7,8.5 16.7,15.7 18.5,15.7 18.5,6.8 "/>
</svg>
