<?xml version="1.0" encoding="utf-8"?>
<!-- Generator: Adobe Illustrator 19.2.1, SVG Export Plug-In . SVG Version: 6.00 Build 0)  -->
<svg version="1.1" id="Layer_1" xmlns="http://www.w3.org/2000/svg" xmlns:xlink="http://www.w3.org/1999/xlink" x="0px" y="0px"
	 viewBox="0 0 25 25" style="enable-background:new 0 0 25 25;" xml:space="preserve">
<style type="text/css">
	.st0{fill:#999999;}
	.st1{fill:#FFFFFF;}
</style>
<path class="st0" d="M25,12.5C25,19.4,19.4,25,12.5,25S0,19.4,0,12.5S5.6,0,12.5,0S25,5.6,25,12.5z"/>
<path class="st1" d="M13.6,19.7H11v-2.4h2.6V19.7z M14.8,13.1c-0.3,0.2-0.7,0.6-1,1c-0.2,0.4-0.2,0.7-0.2,1.1v0.9h-2.6l0.1-1.3
	c0.1-1,0.5-1.9,1.2-2.6c0.3-0.3,0.6-0.6,1.1-1c0.6-0.5,0.9-1,0.9-1.6c0-0.7-0.3-1.3-1-1.6c-0.2-0.2-0.6-0.2-0.9-0.2
	c-1,0-1.5,0.6-1.8,1.8v0.2H8.2c0.1-1.2,0.4-2.1,1-2.8c0.7-1,1.8-1.5,3-1.7c0.2,0,0.3,0,0.5,0c1.4,0,2.5,0.5,3.4,1.5
	c0.3,0.4,0.6,1,0.8,1.4c0.2,0.5,0.2,1,0.2,1.4c0,0.7-0.2,1.4-0.6,2.1C16,12.3,15.4,12.6,14.8,13.1z"/>
</svg>
