<?xml version="1.0" encoding="utf-8"?>
<!-- Generator: Adobe Illustrator 19.2.1, SVG Export Plug-In . SVG Version: 6.00 Build 0)  -->
<svg version="1.1" id="Layer_1" xmlns="http://www.w3.org/2000/svg" xmlns:xlink="http://www.w3.org/1999/xlink" x="0px" y="0px"
	 viewBox="0 0 25 25" style="enable-background:new 0 0 25 25;" xml:space="preserve">
<style type="text/css">
	.st0{fill:#999999;}
	.st1{fill:#FFFFFF;}
</style>
<path class="st0" d="M25,12.5C25,19.4,19.4,25,12.5,25S0,19.4,0,12.5S5.6,0,12.5,0S25,5.6,25,12.5"/>
<path class="st1" d="M12,14.9h3.6c0.8,0,1.4,0.6,1.4,1.4s-0.6,1.4-1.4,1.4h-3.5l-0.4-0.1c-2.8,0-2.5-3.1-2.5-3.1V8.4
	C9.2,7.7,9.8,7,10.6,7S12,7.6,12,8.4v1.3h3.7c0.8,0,1.4,0.6,1.4,1.4c0,0.8-0.6,1.4-1.4,1.4H12v2.2C11.9,14.8,11.8,14.9,12,14.9"/>
</svg>
