<?xml version="1.0" encoding="utf-8"?>
<!-- Generator: Adobe Illustrator 15.1.0, SVG Export Plug-In . SVG Version: 6.00 Build 0)  -->
<!DOCTYPE svg PUBLIC "-//W3C//DTD SVG 1.1//EN" "http://www.w3.org/Graphics/SVG/1.1/DTD/svg11.dtd">
<svg version="1.1" id="Capa_3" xmlns="http://www.w3.org/2000/svg" xmlns:xlink="http://www.w3.org/1999/xlink" x="0px" y="0px"
	 width="32px" height="32px" viewBox="0 0 32 32" enable-background="new 0 0 32 32" xml:space="preserve">
<g>
	<path fill="#F7F7F7" d="M25.59,7.816L21.289,19.8c-0.521,1.41-2.086,2.133-3.494,1.613c-1.044-0.383-1.711-1.338-1.776-2.383
		v-7.645l-0.011-0.529c0-0.734,0.594-1.328,1.326-1.328s1.328,0.594,1.328,1.328c0,0.391-0.613,1.197-0.619,1.205l-0.518,0.681
		l0.032,3.285l1.646-2.385l0.543-0.856c0.284-0.496,0.447-1.074,0.447-1.688c0-1.887-1.529-3.416-3.414-3.416
		s-3.414,1.529-3.414,3.416v0.162v7.854c0.1,2.092,1.426,4.021,3.514,4.789c2.787,1.025,5.872-0.404,6.895-3.187l2.016-5.509
		l0.473-1.25c0.045-0.123,2.098-6.018,2.133-6.142H25.59z"/>
	<path fill="#F7F7F7" d="M10.862,20.815c-0.743,0.715-1.777,1.064-2.819,0.682c-1.412-0.518-2.134-2.08-1.613-3.49l0.279-0.764
		l3.363-9.427H7.258L7.256,7.825L5.658,7.827C4.983,7.831,4.438,8.378,4.438,9.052c0.002,0.676,0.551,1.222,1.227,1.218l0.729-0.002
		l-1.691,4.798l-0.763,2.025c-1.027,2.783,0.401,5.873,3.187,6.896c1.946,0.717,4.032,0.229,5.465-1.074
		c-0.558-0.845-0.943-1.8-1.116-2.824C11.119,20.516,10.889,20.79,10.862,20.815z"/>
</g>
</svg>
