<?xml version="1.0" encoding="utf-8"?>
<!-- Generator: Adobe Illustrator 16.0.0, SVG Export Plug-In . SVG Version: 6.00 Build 0)  -->
<!DOCTYPE svg PUBLIC "-//W3C//DTD SVG 1.1//EN" "http://www.w3.org/Graphics/SVG/1.1/DTD/svg11.dtd">
<svg version="1.1" id="Capa_1" xmlns="http://www.w3.org/2000/svg" xmlns:xlink="http://www.w3.org/1999/xlink" x="0px" y="0px"
	 width="500px" height="78px" viewBox="20 0 500 78" enable-background="new 20 0 500 78" xml:space="preserve">
<g>
	<path fill="#FFFFFF" d="M49.724,23.667l-1.443-0.05l0.1,0.305c0.634,1.96,0.888,4.387,0.85,8.117l-0.045,7.806
		c0,4.442-0.189,6.11-0.883,7.757c-0.499,1.125-1.417,2.135-2.579,2.842c-1.499,0.861-3.367,1.315-5.404,1.315
		c-3.513,0-6.478-1.581-7.552-4.026c-0.687-1.597-0.843-2.859-0.843-6.762l0.086-9.318c0.043-2.516,0.043-4.059,0.042-4.628
		c0.055-0.918,0.154-1.993,0.301-3.192l0.034-0.268l-1.637,0.102h-3.997l-1.229-0.045l-1.024,2.274h0.776
		c1.134,0,1.701,0.349,1.896,1.171c0.221,0.89,0.338,2.432,0.338,4.454l-0.044,7.926l-0.042,3.258
		c-0.044,4.368,0.649,6.854,2.476,8.863c0.916,0.97,2.118,1.746,3.561,2.308c1.8,0.801,3.931,1.19,6.514,1.19
		c3.433,0,6.303-0.771,8.533-2.293c2.685-1.862,4.058-4.549,4.318-8.447c0.085-1.104,0.128-2.348,0.128-3.698L53,32.041
		c0.042-4.175,0.124-5.061,0.557-8.157l0.037-0.266l-1.465,0.048L49.724,23.667L49.724,23.667z"/>
	<path fill="#FFFFFF" d="M77.299,26.737l-1.224-0.051l0.105,0.311c0.579,1.699,0.922,4.982,0.922,8.781l-0.038,8.869l0.083,1.969
		l-11.55-14.911c-1.467-1.893-2.023-2.723-3.305-4.934l-0.068-0.118l-2.027,0.084l-3.465,0.001l-1.083-0.044l-0.914,2.029h0.72
		c0.965,0,1.446,0.297,1.61,0.995c0.173,0.693,0.257,1.977,0.257,3.926L57.285,45.43v3.23c0,0.895-0.102,1.736-0.223,2.682
		c-0.032,0.331-0.102,0.891-0.257,1.661l-0.059,0.287l1.359-0.089l2.112-0.001l1.31,0.098l-0.108-0.321
		c-0.539-1.582-0.847-4.318-0.847-7.508l0.035-12.549l-0.046-1.204l2.556,3.342l11.01,14.002c1.196,1.529,1.797,2.357,3.234,4.568
		l0.069,0.104l1.651-0.043h1.665l-0.022-0.244c-0.175-1.971-0.219-2.738-0.318-4.415l-0.019-0.343
		c-0.037-0.938-0.037-1.686-0.037-2.283l0.037-10.582c0-1.428,0.016-2.553,0.027-3.376c0.007-0.479,0.013-0.857,0.013-1.133
		c0-0.828,0.058-1.688,0.184-2.714c0.042-0.419,0.128-0.968,0.258-1.632l0.055-0.278l-1.357,0.046L77.299,26.737z"/>
	<path fill="#FFFFFF" d="M89.533,45.957l0.035-12.277c0-2.568,0.059-3.712,0.077-4.002c0.033-0.571,0.099-1.375,0.223-2.772
		l0.023-0.264l-1.403,0.097l-3.463,0.001l-1.085-0.044l-0.914,2.029h0.721c0.965,0,1.446,0.297,1.611,0.995
		c0.174,0.7,0.256,1.923,0.256,3.848l-0.039,12.351c0,3.45-0.036,3.812-0.258,5.424c-0.032,0.338-0.1,0.838-0.224,1.674
		l-0.042,0.274l1.308-0.089l2.708-0.001l1.305,0.096l-0.103-0.317C89.746,51.361,89.533,49.327,89.533,45.957"/>
	<path fill="#FFFFFF" d="M114.76,26.736h-2.79l-1.511-0.047l0.097,0.304c0.214,0.663,0.25,0.938,0.25,1.43
		c0,1.343-0.442,3.072-1.478,5.778l-4.037,10.583l-1.517,3.877l-1.118-3.527l-4.105-12.052c-0.868-2.495-1.275-3.855-1.41-4.706
		c-0.052-0.229-0.084-0.557-0.125-0.971l-0.079-0.758l-1.51,0.09l-2.941,0.001l-1.082-0.044l-0.917,2.029h0.721
		c0.854,0,1.205,0.26,1.701,1.262c0.525,1.14,1.007,2.38,1.45,3.548l6.045,16.55c0.628,1.776,0.735,2.177,0.96,3.565l0.032,0.205
		l1.125-0.097l1.616-0.001l0.99,0.1l0.039-0.198c0.367-1.849,0.505-2.269,1.633-4.988l6.302-15.271
		c0.227-0.526,0.563-1.277,1.042-2.325c0.45-0.972,0.789-1.684,1.001-2.127c0.226-0.414,0.562-1.012,1.006-1.797l0.07-0.125
		l-0.263-0.374L114.76,26.736z"/>
	<path fill="#FFFFFF" d="M134.486,48.794c-0.721,0.692-1.077,0.947-1.734,1.242c-0.438,0.2-0.946,0.354-1.437,0.428
		c-0.96,0.181-2.018,0.261-3.428,0.261c-2.104,0-2.914-0.168-3.455-0.716c-0.403-0.438-0.541-0.946-0.615-2.265l-0.004-0.062
		c-0.037-0.683-0.067-1.221-0.067-1.646v-5.422c1.334-0.062,1.924-0.062,2.87-0.062c1.17,0,2.363,0.036,3.657,0.11
		c0.364,0,0.907,0.036,1.656,0.108l0.27,0.026l-0.097-1.032l0.037-1.136l0.153-1.067l-0.867,0.074
		c-1.369,0.116-2.057,0.174-3.429,0.174h-4.219v-4.238l0.146-4.338c1.075-0.07,1.99-0.095,2.505-0.095
		c1.375,0,2.572,0.146,3.56,0.436c0.845,0.248,1.146,0.445,1.795,1.177l0.083,0.093l0.718-0.122l0.291-1.067l0.48-1.524l0.613-1.521
		l-1.351,0.042c-1.688,0.055-2.537,0.081-6.112,0.081h-5.187l-3.17-0.038l-0.91,2.024h0.719c0.964,0,1.445,0.297,1.61,0.996
		c0.174,0.687,0.254,1.91,0.254,3.847l-0.038,12.351c0,3.399-0.029,3.743-0.259,5.422c-0.039,0.39-0.116,0.97-0.221,1.675
		l-0.04,0.264l3.954-0.076l5,0.07c1.984,0.029,3.311,0.057,3.989,0.068c0.306,0.006,0.482,0.01,0.528,0.01
		c0.219,0,0.543,0.021,0.967,0.047l0.672,0.039l0.302-1.537l0.331-1.453l0.387-1.385l-0.797-0.373L134.486,48.794z"/>
	<path fill="#FFFFFF" d="M157.044,51.243c-1.091-1.097-2.333-2.726-4.154-5.452l-3.772-5.561l-0.706-0.956
		c1.691-0.897,2.678-1.592,3.483-2.444c1.004-1.076,1.556-2.583,1.556-4.242c0-1.915-0.705-3.55-1.986-4.601
		c-1.344-1.072-2.579-1.365-5.738-1.365c-0.83,0-1.688,0-2.659,0.034l-3.532,0.115l-3.137-0.077l-0.913,2.026h0.723
		c0.96,0,1.443,0.297,1.61,0.995c0.173,0.703,0.254,1.925,0.254,3.848l-0.037,12.35c0,3.628-0.086,4.521-0.487,7.096l-0.044,0.277
		l1.314-0.089l2.708-0.001l1.301,0.097l-0.103-0.317c-0.52-1.608-0.731-3.644-0.731-7.022l0.038-12.277
		c0-2.483,0.026-3.071,0.082-4.24l0.017-0.365c1.273-0.169,1.83-0.201,2.437-0.201c2.992,0,4.78,1.657,4.78,4.436
		c0,2.1-1.048,3.802-2.735,4.445c-0.92,0.366-1.569,0.432-3.319,0.471l-0.185,0.005l-0.179,1.063l-0.29,1.216h0.66
		c0.828,0,1.408,0.29,2.651,2.011c2.259,3.088,3.525,5.008,5.215,7.904c0.386,0.646,0.634,1.126,0.784,1.426
		c0.142,0.244,0.252,0.444,0.333,0.596c0.072,0.13,0.122,0.223,0.168,0.293c0.108,0.143,0.253,0.367,0.434,0.656l0.071,0.111
		l1.693-0.119l2.841-0.072l1.162-0.052l0.075-0.575l-0.104-0.078C157.87,52.038,157.619,51.82,157.044,51.243"/>
	<path fill="#FFFFFF" d="M169.071,37.577c-2.521-1.369-3.344-1.94-4.135-2.633c-0.784-0.72-1.199-1.663-1.199-2.726
		c0-2.267,1.756-3.79,4.367-3.79c2.142,0,3.419,0.656,4.707,2.419l0.081,0.109l0.769-0.113l0.218-0.926l0.552-1.75l0.505-1.267
		l-0.226-0.076c-1.972-0.66-2.755-0.837-4.193-0.95c-0.432-0.039-0.894-0.076-1.365-0.076c-5.405,0-9.035,3.093-9.035,7.695
		c0,1.786,0.645,3.441,1.82,4.664c1.056,1.058,1.609,1.42,4.943,3.228c2.205,1.198,3.212,1.932,3.997,2.907
		c0.597,0.738,0.924,1.701,0.924,2.71c0,2.551-2.166,4.475-5.037,4.475c-1.098,0-2.368-0.384-3.243-0.98
		c-0.673-0.423-0.985-0.812-1.644-1.844l-0.084-0.131l-0.817,0.174l-0.696,2.787l-0.477,1.517l0.2,0.074
		c1.888,0.694,2.613,0.841,4.132,0.985l0.259,0.02c0.427,0.031,0.831,0.062,1.211,0.062c5.754,0,9.931-3.633,9.931-8.636
		c0-1.604-0.481-3.08-1.394-4.269C173.105,39.925,172.157,39.24,169.071,37.577"/>
	<path fill="#FFFFFF" d="M182.731,45.957l0.045-12.277c0-1.788,0.026-3.283,0.069-4.002c0.041-0.642,0.114-1.549,0.225-2.772
		l0.023-0.264l-1.406,0.097l-3.459,0.001l-1.087-0.044l-0.918,2.029h0.728c0.967,0,1.448,0.297,1.611,0.994
		c0.171,0.707,0.256,1.966,0.256,3.849l-0.04,12.351c0,3.43-0.037,3.795-0.261,5.424c-0.034,0.364-0.107,0.911-0.219,1.674
		l-0.041,0.274l1.305-0.089l2.711-0.001l1.304,0.096l-0.106-0.317C182.954,51.383,182.731,49.28,182.731,45.957"/>
	<path fill="#FFFFFF" d="M206.645,28.078c-1.683-0.889-3.553-1.265-6.66-1.341c-0.936-0.038-2.063-0.038-3.367-0.038
		c-0.767,0-1.767,0.01-2.766,0.019c-0.999,0.01-1.996,0.018-2.758,0.018l-3.464,0.001l-1.086-0.044l-0.909,2.03h0.718
		c0.965,0,1.448,0.296,1.613,0.994c0.172,0.699,0.252,1.922,0.252,3.848l-0.039,12.35c0,3.474-0.037,3.834-0.261,5.424
		c-0.033,0.362-0.106,0.908-0.222,1.675l-0.042,0.274l1.309-0.089h2.728c1.368,0,2.453,0.041,3.326,0.076
		c0.547,0.02,0.991,0.037,1.339,0.037c4.814,0,8.049-0.957,10.816-3.203c3.254-2.6,5.118-6.7,5.118-11.253
		C212.292,33.981,210.182,29.95,206.645,28.078 M197.142,50.688c-1.462,0-2.767-0.125-3.483-0.334
		c-0.32-0.096-0.587-0.256-0.832-0.498c-0.398-0.434-0.54-0.963-0.612-2.268l-0.011-0.195c-0.033-0.557-0.066-1.08-0.066-1.514
		l0.04-12.194l0.107-4.331l1.17-0.059c1.508-0.077,2.418-0.123,3.348-0.123c4.389,0,6.702,0.765,8.528,2.819
		c1.647,1.872,2.555,4.646,2.555,7.81C207.886,46.618,203.87,50.688,197.142,50.688"/>
	<path fill="#FFFFFF" d="M234.783,51.335c-0.93-1.867-1.697-3.606-2.161-4.897l-6.194-16.555c-0.632-1.628-0.78-2.208-1.15-3.797
		l-0.048-0.208l-1.029,0.187l-2.568,0.396l-0.038,0.144c-0.483,1.854-0.663,2.484-1.562,4.665l-6.192,15.319
		c-0.226,0.572-0.563,1.351-1.005,2.313l-0.263,0.552c-0.32,0.668-0.572,1.196-0.78,1.584c-0.185,0.371-0.483,0.937-0.891,1.683
		l-0.063,0.117l0.291,0.445l1.125-0.08l2.564-0.001l1.469,0.091l-0.087-0.305c-0.215-0.754-0.249-1.107-0.249-1.661
		c0-1.084,0.359-2.624,1.067-4.577l1.216-3.273l2.451-0.068h4.436l2.131,0.066l1.213,3.572c0.769,2.239,1.125,3.36,1.339,4.516
		c0.054,0.242,0.108,0.592,0.175,1.035l0.112,0.733l1.832-0.127l2.374-0.001l1.593,0.098l-0.226-0.367
		C235.262,52.27,235.114,52.012,234.783,51.335 M226.318,40.859l-1.633,0.063h-3.615l-1.889-0.063l3.738-9.896L226.318,40.859z"/>
	<path fill="#FFFFFF" d="M255.918,28.078c-1.685-0.89-3.555-1.265-6.664-1.341c-0.939-0.038-2.065-0.038-3.369-0.038
		c-0.763,0-1.762,0.01-2.761,0.019c-0.999,0.01-1.995,0.018-2.76,0.018l-3.464,0.001l-1.085-0.044l-0.912,2.03h0.718
		c0.965,0,1.447,0.296,1.612,0.994c0.173,0.7,0.258,1.958,0.258,3.848l-0.037,12.35c0,3.425-0.037,3.793-0.264,5.423
		c-0.035,0.373-0.116,0.934-0.222,1.676l-0.037,0.274l1.307-0.089h2.723c1.365,0,2.451,0.041,3.323,0.076
		c0.547,0.02,0.993,0.037,1.343,0.037c4.814,0,8.047-0.957,10.81-3.203c3.255-2.6,5.124-6.7,5.124-11.253
		C261.562,33.981,259.453,29.951,255.918,28.078 M246.41,50.688c-1.458,0-2.762-0.125-3.48-0.334
		c-0.325-0.097-0.591-0.256-0.832-0.498c-0.4-0.433-0.538-0.938-0.614-2.267l-0.019-0.362c-0.029-0.494-0.056-0.959-0.056-1.348
		l0.042-12.194l0.107-4.331l1.16-0.058c1.513-0.078,2.425-0.124,3.358-0.124c4.393,0,6.705,0.765,8.528,2.819
		c1.647,1.874,2.557,4.648,2.557,7.81C257.16,46.618,253.141,50.688,246.41,50.688"/>
	<path fill="#FFFFFF" d="M286.094,31.562c-1.251-0.656-2.691-0.946-4.969-1c-0.695-0.026-1.533-0.026-2.501-0.026
		c-0.567,0-1.31,0.006-2.052,0.013c-0.738,0.007-1.479,0.013-2.047,0.013l-2.568,0.001l-0.842-0.033l-0.732,1.624h0.627
		c0.854,0,1.053,0.349,1.139,0.693c0.129,0.511,0.188,1.417,0.188,2.846l-0.031,9.161c0,2.517-0.021,2.814-0.191,4.018
		c-0.026,0.277-0.084,0.691-0.163,1.238l-0.044,0.275l1.041-0.068h2.019c1.017,0,1.822,0.031,2.472,0.057
		c0.405,0.016,0.734,0.027,0.994,0.027c3.584,0,5.996-0.715,8.06-2.391c2.429-1.932,3.821-4.99,3.821-8.392
		C290.312,35.97,288.736,32.959,286.094,31.562 M279.014,48.328c-1.098,0-2.059-0.089-2.565-0.236
		c-0.235-0.07-0.425-0.186-0.593-0.354c-0.289-0.314-0.389-0.684-0.441-1.641l-0.021-0.404c-0.017-0.317-0.033-0.611-0.033-0.865
		l0.031-9.052l0.074-3.162l1.029-0.049c0.979-0.047,1.623-0.078,2.27-0.078c3.283,0,4.93,0.541,6.283,2.067
		c1.215,1.383,1.883,3.427,1.883,5.756C286.93,45.331,283.969,48.328,279.014,48.328"/>
	<path fill="#FFFFFF" d="M303.531,46.943c-0.525,0.506-0.785,0.692-1.264,0.906c-0.334,0.15-0.699,0.264-1.062,0.321
		c-0.707,0.131-1.488,0.188-2.531,0.188c-1.521,0-2.135-0.125-2.523-0.512c-0.285-0.316-0.385-0.687-0.438-1.646l-0.017-0.321
		c-0.021-0.377-0.037-0.688-0.037-0.947v-3.963c0.949-0.047,1.383-0.047,2.072-0.047c0.814,0,1.672,0.026,2.713,0.085
		c0.265,0,0.664,0.026,1.229,0.084l0.274,0.026l-0.086-0.835l0.023-0.834l0.127-0.862l-0.709,0.059
		c-1.016,0.086-1.527,0.129-2.549,0.129h-3.07v-3.08l0.106-3.168c0.704-0.047,1.379-0.075,1.799-0.075
		c0.981,0,1.892,0.113,2.626,0.327c0.617,0.183,0.836,0.327,1.312,0.854l0.084,0.093l0.587-0.105l0.585-1.946l0.488-1.212
		l-1.067,0.033c-1.297,0.041-1.89,0.06-4.558,0.06h-3.849l-2.389-0.028l-0.729,1.62h0.625c0.857,0,1.057,0.348,1.139,0.691
		c0.127,0.521,0.189,1.452,0.189,2.848l-0.027,9.161c0,2.568-0.033,2.814-0.196,4.016c-0.028,0.277-0.08,0.693-0.166,1.238
		l-0.043,0.264l3.009-0.055l3.705,0.049c1.48,0.023,2.467,0.045,2.971,0.057c0.223,0.005,0.352,0.007,0.387,0.007
		c0.172,0,0.429,0.017,0.774,0.037l0.49,0.028l0.229-1.191l0.248-1.07l0.291-1.074l-0.662-0.319L303.531,46.943z"/>
	<path fill="#FFFFFF" d="M338.648,49.066c-1.695,1.244-2.388,1.528-4.229,2.002c-1.479,0.35-2.682,0.513-3.787,0.513
		c-7.082,0-11.841-5.345-11.841-13.296c0-7.696,4.276-12.476,11.158-12.476c3.379,0,5.661,0.986,7.625,3.296l0.066,0.08h0.877
		l0.394-1.458L339.429,26l0.545-1.647l-0.215-0.069c-2.016-0.652-2.847-0.876-4.479-1.087c-1.305-0.18-2.465-0.265-3.652-0.265
		c-5.392,0-9.381,1.242-12.557,3.911c-3.478,2.959-5.47,7.351-5.47,12.048c0,6.173,3.197,11.765,8.144,14.242
		c2.165,1.094,4.957,1.672,8.077,1.672c1.315,0,3.05-0.117,4.418-0.302l0.06-0.009c1.009-0.171,1.806-0.305,3.809-0.82l0.125-0.031
		l0.419-1.461l0.471-1.418l0.447-1.199l-0.782-0.595L338.648,49.066z"/>
	<path fill="#FFFFFF" d="M354.122,25.688c-8.085,0-14.183,6.211-14.183,14.448c0,8.287,5.356,14.075,13.026,14.075
		c8.475,0,14.625-6.202,14.625-14.747C367.592,31.098,362.305,25.688,354.122,25.688 M353.823,51.624c-5.492,0-9.327-5-9.327-12.159
		c0-6.797,3.66-11.189,9.327-11.189c5.428,0,9.221,5.032,9.221,12.236C363.043,47.264,359.423,51.624,353.823,51.624"/>
	<path fill="#FFFFFF" d="M377.778,37.577c-2.521-1.369-3.343-1.939-4.134-2.633c-0.781-0.72-1.196-1.662-1.196-2.726
		c0-2.267,1.755-3.79,4.364-3.79c2.141,0,3.418,0.656,4.711,2.419l0.078,0.109l0.77-0.113l0.225-0.926l0.55-1.752l0.493-1.266
		l-0.223-0.075c-1.96-0.659-2.743-0.837-4.189-0.95c-0.41-0.037-0.89-0.076-1.361-0.076c-5.405,0-9.038,3.093-9.038,7.695
		c0,1.788,0.646,3.442,1.823,4.663c1.044,1.051,1.598,1.414,4.938,3.229c2.199,1.195,3.207,1.93,3.996,2.909
		c0.597,0.737,0.926,1.699,0.926,2.708c0,2.551-2.165,4.475-5.038,4.475c-1.104,0-2.373-0.384-3.24-0.98
		c-0.676-0.428-1.004-0.834-1.646-1.844l-0.085-0.131l-0.814,0.174l-0.701,2.787l-0.478,1.517l0.202,0.074
		c1.89,0.694,2.614,0.843,4.133,0.985l0.26,0.02c0.428,0.031,0.828,0.062,1.216,0.062c5.751,0,9.925-3.633,9.925-8.636
		c0-1.604-0.48-3.08-1.392-4.269C381.812,39.922,380.864,39.237,377.778,37.577"/>
	<path fill="#FFFFFF" d="M398.444,45.957l0.038-12.383l0.136-4.47c2.8,0.037,3.431,0.069,4.604,0.22
		c0.562,0.08,1.061,0.2,1.528,0.364c0.697,0.249,1.006,0.481,1.709,1.156l0.073,0.07l0.758-0.06l0.211-1.096l0.407-1.605
		l0.513-1.536l-3.082,0.063c-3.406,0.07-6.346,0.131-8.872,0.131c-2.519,0-5.343-0.064-8.605-0.139l-2.427-0.054l-0.127,1.476
		l-0.227,1.734l-0.097,1.062l0.811,0.053l0.071-0.067c0.65-0.612,0.975-0.832,1.646-1.115c1.121-0.451,2.16-0.591,4.624-0.622
		c0.235,0,0.519-0.006,0.846-0.015c0.396-0.01,0.86-0.022,1.398-0.024c0.011,0.383,0.021,0.733,0.027,1.046
		c0.01,0.466,0.02,0.851,0.04,1.137c0.039,1.164,0.039,1.919,0.039,2.281l-0.039,12.347l-0.002,0.172
		c-0.034,3.292-0.038,3.637-0.261,5.254c-0.029,0.312-0.1,0.854-0.255,1.665l-0.055,0.284l1.396-0.088l2.703-0.001l1.27,0.098
		l-0.104-0.32C398.641,51.441,398.444,49.475,398.444,45.957"/>
	<path fill="#FFFFFF" d="M426.337,51.335c-0.936-1.882-1.7-3.62-2.158-4.897l-6.189-16.555c-0.623-1.606-0.773-2.191-1.152-3.797
		l-0.049-0.208l-2.661,0.45l-0.933,0.133l-0.038,0.144c-0.479,1.833-0.655,2.46-1.562,4.665l-6.194,15.319
		c-0.188,0.472-0.516,1.256-1.008,2.313l-0.156,0.334c-0.362,0.768-0.648,1.373-0.884,1.804c-0.142,0.285-0.411,0.808-0.891,1.681
		l-0.066,0.12l0.299,0.442l1.124-0.079l2.56-0.001l1.473,0.091l-0.087-0.304c-0.216-0.774-0.253-1.139-0.253-1.662
		c0-1.079,0.36-2.619,1.071-4.577l1.212-3.272l2.457-0.068h4.438l2.117,0.066l1.222,3.572c0.743,2.164,1.114,3.33,1.334,4.516
		c0.075,0.326,0.148,0.832,0.254,1.53l0.034,0.237l1.835-0.127l2.375-0.001l1.59,0.099l-0.226-0.369
		C426.812,52.257,426.67,52.004,426.337,51.335 M417.878,40.859l-1.633,0.063h-3.613l-1.889-0.063l3.738-9.896L417.878,40.859z"/>
	<path fill="#FFFFFF" d="M457.028,51.949c-1.278-1.283-2.715-3.165-4.808-6.291l-4.352-6.427l-0.84-1.133
		c1.975-1.049,3.124-1.85,4.054-2.827c1.15-1.247,1.784-2.977,1.784-4.877c0-2.2-0.809-4.078-2.279-5.294
		c-1.545-1.227-2.966-1.562-6.606-1.562c-0.956,0-1.942,0-3.063,0.043l-4.083,0.132l-3.6-0.089l-1.023,2.272h0.782
		c1.129,0,1.695,0.349,1.889,1.171c0.204,0.806,0.299,2.223,0.299,4.455l-0.046,14.263c0,3.994-0.07,5.066-0.557,8.201l-0.045,0.279
		l1.472-0.11h3.128l1.458,0.116l-0.104-0.319c-0.604-1.869-0.851-4.226-0.851-8.128l0.041-14.174c0-2.854,0.032-3.529,0.1-4.879
		l0.021-0.472c1.484-0.192,2.133-0.228,2.846-0.228c3.478,0,5.553,1.922,5.553,5.147c0,2.444-1.217,4.425-3.18,5.166
		c-1.06,0.426-1.812,0.504-3.844,0.548l-0.185,0.003l-0.2,1.208l-0.327,1.366h0.718c1.09,0,1.786,0.521,3.1,2.329
		c2.621,3.605,4.085,5.823,6.02,9.131c0.432,0.725,0.722,1.286,0.899,1.645c0.152,0.263,0.271,0.48,0.364,0.648
		c0.094,0.176,0.162,0.301,0.216,0.374c0.115,0.154,0.271,0.39,0.505,0.765l0.072,0.115l1.931-0.143l3.28-0.085l1.308-0.05
		l0.093-0.621l-0.106-0.082C458.009,52.896,457.717,52.646,457.028,51.949"/>
	<path fill="#FFFFFF" d="M465.129,45.957l0.037-12.277c0-1.99,0.035-3.374,0.069-4.002c0.034-0.586,0.102-1.415,0.23-2.771
		l0.021-0.265l-1.406,0.097l-3.467,0.001l-1.081-0.044l-0.915,2.029h0.722c0.966,0,1.446,0.297,1.609,0.995
		c0.176,0.696,0.257,1.918,0.257,3.848l-0.036,12.351c0,3.446-0.037,3.811-0.262,5.424c-0.03,0.334-0.1,0.852-0.223,1.674
		l-0.039,0.274l1.307-0.089l2.712-0.001l1.296,0.096l-0.102-0.315C465.34,51.368,465.129,49.334,465.129,45.957"/>
	<path fill="#FFFFFF" d="M482.445,28.648c2.915,0,4.888,0.853,6.588,2.851l0.064,0.08h0.792l0.344-1.286l0.449-1.5l0.482-1.45
		l-0.217-0.07c-1.723-0.564-2.442-0.757-3.884-0.947c-1.129-0.155-2.133-0.228-3.165-0.228c-4.672,0-8.136,1.079-10.896,3.395
		c-3.015,2.571-4.741,6.383-4.741,10.457c0,5.353,2.771,10.202,7.062,12.36c1.887,0.946,4.309,1.447,7.007,1.447
		c1.17,0,2.676-0.103,3.844-0.264c0.867-0.143,1.555-0.255,3.342-0.713l0.126-0.031l0.368-1.277l0.402-1.231l0.397-1.062
		l-0.715-0.539l-0.135,0.101c-1.468,1.067-2.063,1.315-3.65,1.728c-1.299,0.305-2.337,0.445-3.271,0.445
		c-6.116,0-10.225-4.615-10.225-11.488C472.817,32.777,476.505,28.648,482.445,28.648"/>
	<path fill="#FFFFFF" d="M516.273,52.932c-0.406-0.662-0.545-0.916-0.886-1.597c-0.924-1.849-1.688-3.587-2.153-4.897l-6.196-16.555
		c-0.621-1.603-0.771-2.188-1.148-3.797l-0.049-0.208l-2.667,0.45l-0.932,0.133l-0.038,0.145c-0.472,1.828-0.648,2.455-1.561,4.664
		l-6.194,15.319c-0.236,0.604-0.584,1.406-1.003,2.313l-0.037,0.082c-0.421,0.883-0.752,1.578-1.008,2.056
		c-0.204,0.413-0.521,1.011-0.891,1.681l-0.063,0.12l0.297,0.443l1.122-0.08l2.564-0.001l1.473,0.091l-0.089-0.304
		c-0.214-0.749-0.247-1.104-0.247-1.662c0-1.104,0.356-2.643,1.062-4.577l1.217-3.272l2.455-0.068h4.436l2.119,0.066l1.221,3.57
		c0.762,2.229,1.117,3.346,1.334,4.516c0.059,0.252,0.112,0.606,0.186,1.064l0.111,0.704l1.828-0.127l2.376-0.001l1.587,0.1
		L516.273,52.932z M506.926,40.859l-1.629,0.063h-3.611l-1.891-0.063l3.736-9.896L506.926,40.859z"/>
</g>
</svg>
