<svg xmlns="http://www.w3.org/2000/svg" xmlns:xlink="http://www.w3.org/1999/xlink" viewBox="0 0 98.556 40.469"><defs><style>.a{fill:none;}.b{clip-path:url(#a);}.c{fill:#fff;}</style><clipPath id="a"><path class="a" d="M0-40.469H98.556V0H0Z"/></clipPath></defs><g transform="translate(0 40.469)"><g class="b"><g transform="translate(34.486 -31.884)"><path class="c" d="M0,0-.041,8.29c0,1.257-.043,2.472-.127,3.56-.254,3.727-1.561,6.239-4.135,8a14.533,14.533,0,0,1-8.225,2.176A15.631,15.631,0,0,1-18.814,20.9a9.327,9.327,0,0,1-3.416-2.18c-1.73-1.883-2.405-4.229-2.362-8.415l.043-3.141.04-7.662a20.177,20.177,0,0,0-.336-4.355c-.211-.88-.844-1.3-2.068-1.3h-.421l.8-1.758,1.055.041h3.922l1.351-.083c-.17,1.381-.254,2.387-.3,3.1,0,.543,0,2.051-.041,4.48l-.085,8.334v.668c0,3.852.168,5.066.843,6.616,1.1,2.471,4.05,4.02,7.594,4.02a10.94,10.94,0,0,0,5.4-1.3,6.511,6.511,0,0,0,2.614-2.848c.719-1.674.887-3.434.887-7.578L-3.249,0a24.372,24.372,0,0,0-.843-7.914l1.1.041H-.633L.549-7.914A45.768,45.768,0,0,0,0,0"/></g><g transform="translate(62.753 -37.789)"><path class="c" d="M0,0-.507,1.676-.841,2.93h-.594C-3.416.628-5.694-.335-9.069-.335-15.945-.335-20.2,4.354-20.2,11.933-20.2,19.764-15.481,25-8.4,25a16.85,16.85,0,0,0,3.756-.5A9.949,9.949,0,0,0-.422,22.528l.507.376-.38,1.006L-.76,25.292l-.38,1.3a36.253,36.253,0,0,1-3.753.8,36.23,36.23,0,0,1-4.3.293A17.753,17.753,0,0,1-17,26.087c-4.725-2.345-7.846-7.706-7.846-13.566A14.891,14.891,0,0,1-19.573,1.047C-16.494-1.507-12.612-2.68-7.424-2.68a25.6,25.6,0,0,1,3.544.252A20.262,20.262,0,0,1,.466-1.382Z"/></g><g transform="translate(91.362 -10.655)"><path class="c" d="M0,0-1.1.043-4.3.126-6.073.252c-.212-.335-.38-.585-.507-.753-.084-.125-.253-.46-.548-.963-.209-.42-.508-.964-.886-1.592a92.426,92.426,0,0,0-5.9-8.835c-1.35-1.844-2.068-2.345-3.207-2.345h-.421l.252-1.047.169-1.005a9.631,9.631,0,0,0,3.839-.544,5.278,5.278,0,0,0,3.246-5.192c0-3.225-2.106-5.193-5.651-5.193a20.341,20.341,0,0,0-3,.252c-.085,1.759-.127,2.177-.127,5.359l-.042,13.693A25.677,25.677,0,0,0-18.011,0l-1.1-.083h-3.08L-23.367,0a39.847,39.847,0,0,0,.547-7.955l.042-13.777a20.75,20.75,0,0,0-.3-4.354c-.21-.879-.841-1.3-2.065-1.3h-.424l.8-1.759,3.375.084,4.007-.126c1.1-.043,2.067-.043,2.995-.043,3.584,0,4.893.336,6.328,1.467A6.188,6.188,0,0,1-5.9-22.82a6.639,6.639,0,0,1-1.687,4.564,15.05,15.05,0,0,1-4.134,2.805l.97,1.3,4.26,6.2A41.7,41.7,0,0,0-1.771-1.842,13.462,13.462,0,0,0,.044-.293Z"/></g><g transform="translate(98.556 -1.162)"><path class="c" d="M0,0S-19.444-4.449-49.3-4.449A305.441,305.441,0,0,0-98.556,0V1.162s24-2.183,49.261-2.183C-18.855-1.021,0,1.162,0,1.162Z"/></g></g></g></svg>