<svg xmlns="http://www.w3.org/2000/svg" xmlns:xlink="http://www.w3.org/1999/xlink" viewBox="0 0 199.035 58.527">
  <defs>
    <style>
      .cls-1 {
        fill: #fff;
      }

      .cls-2 {
        fill: #316393;
      }

      .cls-3 {
        clip-path: url(#clip-path);
      }
    </style>
    <clipPath id="clip-path">
      <path id="Path_193" data-name="Path 193" class="cls-1" d="M0-103.447H199.035V-44.92H0Z" transform="translate(0 103.447)"/>
    </clipPath>
  </defs>
  <g id="Group_198" data-name="Group 198" transform="translate(0 103.447)">
    <path id="Path_171" data-name="Path 171" class="cls-2" d="M0-3.36H54.88V-7.32H0Z" transform="translate(0 -41.741)"/>
    <g id="Group_178" data-name="Group 178" transform="translate(0.144 -103.447)">
      <path id="Path_172" data-name="Path 172" class="cls-1" d="M0,0H22.591V4.2H5.165V16.745H21.229v4.2H5.165V38.257H0Z"/>
    </g>
    <g id="Group_179" data-name="Group 179" transform="translate(30.455 -103.447)">
      <path id="Path_173" data-name="Path 173" class="cls-1" d="M-16.685-15.64H-33.26V-1.96h18.5v4.2h-23.67V-36.017h22.7v4.2H-33.26V-19.84h16.574Z" transform="translate(38.425 36.017)"/>
    </g>
    <g id="Group_180" data-name="Group 180" transform="translate(69.859 -91.46)">
      <path id="Path_174" data-name="Path 174" class="cls-1" d="M0,0H9.972V2.005H2.417V8.158H9.395v1.979H2.417v8.378H0Z"/>
    </g>
    <g id="Group_197" data-name="Group 197" class="cls-3" transform="translate(0 -103.447)">
      <g id="Group_181" data-name="Group 181" transform="translate(80.903 16.932)">
        <path id="Path_175" data-name="Path 175" class="cls-1" d="M-6.178-5.208c-2.637-.055-5.632.412-5.632,2.994A2.118,2.118,0,0,0-9.557.094,3.356,3.356,0,0,0-6.288-2.131a2.74,2.74,0,0,0,.11-.769Zm2.335,3.6A22.289,22.289,0,0,0-3.65,1.578h-2.17L-6.013-.1H-6.1A4.954,4.954,0,0,1-10.161,1.88a3.788,3.788,0,0,1-4.066-3.818c0-3.214,2.857-4.972,7.994-4.945v-.274a2.723,2.723,0,0,0-3.022-3.05,6.4,6.4,0,0,0-3.489.989l-.55-1.621a8.616,8.616,0,0,1,4.4-1.154c4.066,0,5.055,2.775,5.055,5.412Z" transform="translate(14.227 11.993)"/>
      </g>
      <g id="Group_182" data-name="Group 182" transform="translate(94.228 16.932)">
        <path id="Path_176" data-name="Path 176" class="cls-1" d="M-8.012-10.057a9.349,9.349,0,0,1-3.818.769c-4.011,0-6.62-2.719-6.62-6.785a6.777,6.777,0,0,1,7.142-7.087,7.614,7.614,0,0,1,3.352.714l-.549,1.84a5.921,5.921,0,0,0-2.8-.632c-3.049,0-4.7,2.281-4.7,5.027,0,3.077,1.978,4.972,4.615,4.972a6.916,6.916,0,0,0,2.966-.632Z" transform="translate(18.45 23.16)"/>
      </g>
      <g id="Group_183" data-name="Group 183" transform="translate(107.414 17.207)">
        <path id="Path_177" data-name="Path 177" class="cls-1" d="M-8.6-7.4c0,1.4.028,2.609.11,3.654h-2.143l-.137-2.17h-.055a4.966,4.966,0,0,1-4.395,2.472c-2.088,0-4.588-1.181-4.588-5.824v-7.774h2.418v7.334c0,2.527.8,4.258,2.967,4.258a3.476,3.476,0,0,0,3.186-2.225,3.308,3.308,0,0,0,.22-1.236v-8.131H-8.6Z" transform="translate(19.81 17.042)"/>
      </g>
      <path id="Path_178" data-name="Path 178" class="cls-1" d="M216.756-84.007h2.417v19.5h-2.417Z" transform="translate(-94.122 95.006)"/>
      <g id="Group_184" data-name="Group 184" transform="translate(127.607 14.02)">
        <path id="Path_179" data-name="Path 179" class="cls-1" d="M-3.394,0V3.186H.067v1.84H-3.394V12.2c0,1.648.467,2.582,1.813,2.582a4.515,4.515,0,0,0,1.4-.165l.11,1.84a6.577,6.577,0,0,1-2.143.33,3.448,3.448,0,0,1-2.609-1.016,5.192,5.192,0,0,1-.934-3.489V5.027H-7.817V3.186h2.061V.714Z" transform="translate(7.817)"/>
      </g>
      <g id="Group_185" data-name="Group 185" transform="translate(137.167 16.932)">
        <path id="Path_180" data-name="Path 180" class="cls-1" d="M-6.178-5.208c-2.637-.055-5.632.412-5.632,2.994A2.118,2.118,0,0,0-9.557.094,3.356,3.356,0,0,0-6.288-2.131a2.74,2.74,0,0,0,.11-.769Zm2.335,3.6A22.289,22.289,0,0,0-3.65,1.578h-2.17L-6.013-.1H-6.1A4.954,4.954,0,0,1-10.161,1.88a3.788,3.788,0,0,1-4.066-3.818c0-3.214,2.857-4.972,7.994-4.945v-.274a2.723,2.723,0,0,0-3.022-3.05,6.4,6.4,0,0,0-3.489.989l-.55-1.621a8.616,8.616,0,0,1,4.4-1.154c4.066,0,5.055,2.775,5.055,5.412Z" transform="translate(14.227 11.993)"/>
      </g>
      <g id="Group_186" data-name="Group 186" transform="translate(150.491 10.998)">
        <path id="Path_181" data-name="Path 181" class="cls-1" d="M-7.7-8.918a4.255,4.255,0,0,0-.11-1.016,3.559,3.559,0,0,0-3.489-2.775c-2.5,0-3.983,2.2-3.983,5.109,0,2.692,1.346,4.917,3.928,4.917A3.663,3.663,0,0,0-7.805-5.567,4.193,4.193,0,0,0-7.7-6.61Zm2.39-11.62v16.07c0,1.181.055,2.527.11,3.434H-7.339l-.11-2.308H-7.53a4.8,4.8,0,0,1-4.478,2.61c-3.214,0-5.714-2.719-5.714-6.758-.028-4.423,2.747-7.115,5.961-7.115A4.454,4.454,0,0,1-7.75-12.6H-7.7v-7.939Z" transform="translate(17.722 20.538)"/>
      </g>
      <g id="Group_187" data-name="Group 187" transform="translate(171.81 10.998)">
        <path id="Path_182" data-name="Path 182" class="cls-1" d="M-7.7-8.918a4.255,4.255,0,0,0-.11-1.016,3.559,3.559,0,0,0-3.489-2.775c-2.5,0-3.983,2.2-3.983,5.109,0,2.692,1.346,4.917,3.928,4.917A3.663,3.663,0,0,0-7.805-5.567,4.193,4.193,0,0,0-7.7-6.61Zm2.39-11.62v16.07c0,1.181.055,2.527.11,3.434H-7.339l-.11-2.308H-7.53a4.8,4.8,0,0,1-4.478,2.61c-3.214,0-5.714-2.719-5.714-6.758-.028-4.423,2.747-7.115,5.961-7.115A4.454,4.454,0,0,1-7.75-12.6H-7.7v-7.939Z" transform="translate(17.722 20.538)"/>
      </g>
      <g id="Group_188" data-name="Group 188" transform="translate(187.305 16.932)">
        <path id="Path_183" data-name="Path 183" class="cls-1" d="M-7.21-4.322c.028-1.511-.632-3.9-3.351-3.9-2.472,0-3.516,2.225-3.709,3.9ZM-14.3-2.592c.055,3.268,2.115,4.615,4.56,4.615a8.648,8.648,0,0,0,3.681-.687l.439,1.731a10.837,10.837,0,0,1-4.45.851c-4.093,0-6.538-2.72-6.538-6.73s2.362-7.142,6.236-7.142c4.368,0,5.494,3.791,5.494,6.236a5.852,5.852,0,0,1-.083,1.126Z" transform="translate(16.605 9.954)"/>
      </g>
      <g id="Group_189" data-name="Group 189" transform="translate(69.639 39.71)">
        <path id="Path_184" data-name="Path 184" class="cls-1" d="M-8.433-8.2h-6.812v4.4h7.609V-.372H-19.421V-18.887h11.4v3.434h-7.225v3.846h6.812Z" transform="translate(19.421 18.887)"/>
      </g>
      <g id="Group_190" data-name="Group 190" transform="translate(83.266 38.721)">
        <path id="Path_185" data-name="Path 185" class="cls-1" d="M-7.379-9.024a3.76,3.76,0,0,0-.055-.769,2.511,2.511,0,0,0-2.445-2.033c-1.923,0-2.885,1.7-2.885,3.818,0,2.28,1.126,3.709,2.857,3.709A2.474,2.474,0,0,0-7.462-6.3a5.454,5.454,0,0,0,.083-.962ZM-3.2-20.781V-5.287c0,1.511.055,3.1.11,4.01H-6.8l-.165-1.95H-7.05a4.693,4.693,0,0,1-4.2,2.253c-3.187,0-5.741-2.72-5.741-6.9-.027-4.532,2.8-7.169,6.016-7.169a4.129,4.129,0,0,1,3.544,1.511h.055v-7.252Z" transform="translate(16.994 20.781)"/>
      </g>
      <g id="Group_191" data-name="Group 191" transform="translate(100.354 44.792)">
        <path id="Path_186" data-name="Path 186" class="cls-1" d="M-9.761-7c0,1.758.055,3.187.11,4.313h-3.626l-.192-1.9h-.082a4.792,4.792,0,0,1-4.2,2.2c-2.747,0-4.725-1.7-4.725-5.851V-16.12H-18.3V-8.9c0,1.951.632,3.132,2.115,3.132A2.217,2.217,0,0,0-14.1-7.22a2.225,2.225,0,0,0,.165-.906V-16.12h4.175Z" transform="translate(22.48 16.12)"/>
      </g>
      <g id="Group_192" data-name="Group 192" transform="translate(115.656 44.49)">
        <path id="Path_187" data-name="Path 187" class="cls-1" d="M-8.328-10.268a9.554,9.554,0,0,1-3.736.631c-4.34,0-7.115-2.665-7.115-6.867,0-3.928,2.693-7.142,7.692-7.142a9.683,9.683,0,0,1,3.186.522l-.66,3.1a5.716,5.716,0,0,0-2.335-.412,3.476,3.476,0,0,0-3.6,3.764A3.51,3.51,0,0,0-11.212-12.9a5.9,5.9,0,0,0,2.39-.44Z" transform="translate(19.179 23.646)"/>
      </g>
      <g id="Group_193" data-name="Group 193" transform="translate(128.046 44.463)">
        <path id="Path_188" data-name="Path 188" class="cls-1" d="M-6.156-5.692c-2.2,0-3.9.522-3.9,2.115A1.5,1.5,0,0,0-8.408-1.984a2.308,2.308,0,0,0,2.17-1.538,2.97,2.97,0,0,0,.083-.715Zm4.038,3.1A17.431,17.431,0,0,0-1.9.653H-5.662L-5.909-.693h-.082A4.841,4.841,0,0,1-9.837.956a4.117,4.117,0,0,1-4.34-4.121c0-3.489,3.132-5.137,7.883-5.137v-.165c0-.742-.384-1.758-2.445-1.758a7.556,7.556,0,0,0-3.709,1.017l-.769-2.692A11.028,11.028,0,0,1-8-13.109c4.478,0,5.879,2.637,5.879,5.823Z" transform="translate(14.177 13.109)"/>
      </g>
      <g id="Group_194" data-name="Group 194" transform="translate(142.662 44.49)">
        <path id="Path_189" data-name="Path 189" class="cls-1" d="M-8.328-10.268a9.554,9.554,0,0,1-3.736.631c-4.34,0-7.115-2.665-7.115-6.867,0-3.928,2.693-7.142,7.692-7.142a9.683,9.683,0,0,1,3.186.522l-.66,3.1a5.716,5.716,0,0,0-2.335-.412,3.476,3.476,0,0,0-3.6,3.764A3.51,3.51,0,0,0-11.212-12.9a5.9,5.9,0,0,0,2.39-.44Z" transform="translate(19.179 23.646)"/>
      </g>
      <path id="Path_190" data-name="Path 190" class="cls-1" d="M275.33-28.747h4.175v13.433H275.33Zm0,13.433,4.313-17.169a2.081,2.081,0,0,1-2.252,2.088,2.057,2.057,0,0,1-2.17-2.088,2.073,2.073,0,0,1,2.225-2.088,2.065,2.065,0,0,1,2.2,2.088" transform="translate(-119.508 73.539)"/>
      <g id="Group_195" data-name="Group 195" transform="translate(162.579 38.941)">
        <path id="Path_191" data-name="Path 191" class="cls-1" d="M-8.729,0-12.08,4.175h-2.857L-12.575,0Zm-7.06,12.554c0,2.307.962,4.038,2.747,4.038,1.648,0,2.664-1.622,2.664-4.066,0-1.978-.769-4.011-2.664-4.011-1.978,0-2.747,2.061-2.747,4.038m9.724-.137a6.74,6.74,0,0,1-7.087,7.17,6.581,6.581,0,0,1-6.95-6.923c0-4.367,2.857-7.142,7.2-7.142a6.532,6.532,0,0,1,6.84,6.9" transform="translate(20.102)"/>
      </g>
      <g id="Group_196" data-name="Group 196" transform="translate(179.091 44.49)">
        <path id="Path_192" data-name="Path 192" class="cls-1" d="M-.084-3.521c0-1.676-.055-3.077-.11-4.286H3.432l.192,1.868h.082a4.824,4.824,0,0,1,4.148-2.17c2.747,0,4.807,1.841,4.807,5.8V5.626H8.486V-1.818c0-1.731-.6-2.912-2.115-2.912A2.293,2.293,0,0,0,4.229-3.164,3.008,3.008,0,0,0,4.091-2.12V5.626H-.084Z" transform="translate(0.194 8.109)"/>
      </g>
    </g>
  </g>
</svg>
